<?xml version="1.0" standalone="no"?>
<!DOCTYPE svg PUBLIC "-//W3C//DTD SVG 20010904//EN"
 "http://www.w3.org/TR/2001/REC-SVG-20010904/DTD/svg10.dtd">
<svg version="1.0" xmlns="http://www.w3.org/2000/svg"
 width="260.000000pt" height="260.000000pt" viewBox="0 0 260.000000 260.000000"
 preserveAspectRatio="xMidYMid meet">
<metadata>
Created by potrace 1.11, written by Peter Selinger 2001-2013
</metadata>
<g transform="translate(0.000000,260.000000) scale(0.100000,-0.100000)"
fill="#000000" stroke="none">
<path d="M1903 2373 c-57 -20 -127 -84 -148 -135 -9 -24 -17 -66 -16 -94 1
-151 129 -254 300 -241 156 11 254 105 253 241 0 34 -7 75 -14 93 -21 48 -75
103 -127 126 -58 27 -186 32 -248 10z"/>
<path d="M1769 1713 c-3 -10 -4 -373 -4 -808 l1 -790 252 -3 252 -2 0 810 0
810 -249 0 c-229 0 -249 -1 -252 -17z"/>
<path d="M70 1695 c0 -3 117 -355 260 -782 143 -428 260 -779 260 -780 0 -2
93 -3 208 -3 l207 0 72 213 c295 874 453 1345 453 1351 0 3 -94 6 -210 6
l-209 0 -11 -42 c-6 -24 -20 -72 -30 -108 -10 -36 -34 -126 -54 -200 -20 -74
-40 -148 -46 -165 -5 -16 -43 -158 -86 -315 -42 -157 -80 -288 -83 -292 -5 -6
-160 537 -177 618 -2 12 -13 51 -23 85 -10 35 -31 111 -46 169 -15 58 -33 123
-40 145 -7 22 -16 55 -20 73 l-7 32 -209 0 c-115 0 -209 -2 -209 -5z"/>
</g>
</svg>
